
<svg width="25px" height="20px" viewBox="0 0 25 20" version="1.1" xmlns="http://www.w3.org/2000/svg" xmlns:xlink="http://www.w3.org/1999/xlink">
    <g id="Page-1" stroke="none" stroke-width="1" fill="none" fill-rule="evenodd">
        <g id="Desktop-HD-Copy-6" transform="translate(-712.000000, -210.000000)" fill="#000000" fill-rule="nonzero">
            <g id="Group" transform="translate(712.000000, 210.000000)">
                <path d="M1.15743747,2.56016077 L12.438893,2.56016077 C12.2394654,3.01109915 12.082787,3.48078938 11.9710361,3.96270142 L1.37305851,3.96270142 L1.37305851,18.584711 L21.4542935,18.584711 L21.4542935,13.3241369 C21.9247692,13.1853552 22.3811701,13.0002873 22.8172085,12.771494 L22.8172085,18.8149788 C22.8192943,19.1291873 22.6983078,19.4310214 22.4815447,19.6523165 C22.4634775,19.6729956 22.4429782,19.6912786 22.4205199,19.7067435 C22.2122925,19.8989358 21.9414639,20.0035448 21.6617779,19.9999083 L1.14930083,19.9999083 C0.843815504,20.0007257 0.550728306,19.8755556 0.335636525,19.6523165 C0.120786947,19.4297073 0,19.1287309 0,18.8149788 L0,3.74290027 C0,3.4299656 0.120936791,3.12987841 0.3361497,2.90879661 C0.55136261,2.68771481 0.843179832,2.56379163 1.14726667,2.56434746 L1.15743747,2.56016077 Z M19.3652104,3.80217173e-07 C21.6437509,-0.000845902652 23.6983509,1.41110833 24.5706907,3.57729069 C25.4430304,5.74347306 24.9612591,8.23714577 23.3500876,9.895194 C21.7389161,11.5532422 19.315745,12.0490306 17.2108055,11.1513102 C15.1058659,10.2535899 13.7338307,8.13921177 13.7346531,5.79437763 C13.7346531,4.25761334 14.3278711,2.78379091 15.3838054,1.69713445 C16.4397397,0.610478 17.8718939,3.80217173e-07 19.3652104,3.80217173e-07 Z M20.1931139,8.58271217 C20.519241,8.58271415 20.7839339,8.31125608 20.7850546,7.97564234 L20.7850546,6.05185898 L21.8265449,6.05185898 C21.9916516,6.05957442 22.1493407,5.98079918 22.2455821,5.84252455 C22.4632373,5.50549613 22.1662498,5.17265439 21.9567312,4.93610649 C21.3607221,4.2787964 20.0324152,3.07512346 19.7333935,2.72134828 C19.6427842,2.60230897 19.5040108,2.53276678 19.3570738,2.53276678 C19.2101368,2.53276678 19.0713634,2.60230897 18.980754,2.72134828 C18.6878349,3.08349684 17.2924006,4.36043683 16.7228356,5.0072802 C16.5194195,5.23126803 16.2875252,5.53898964 16.4909413,5.8446179 C16.5849864,5.97883348 16.7370095,6.05705658 16.8977734,6.05395232 L17.9453662,6.05395232 L17.9453662,7.98610906 C17.9520428,8.32173868 18.2213182,8.58855053 18.5474778,8.58271217 L20.1931139,8.58271217 Z M5.90110036,6.65264748 C6.56789026,6.65180215 7.16944316,7.06461336 7.42499279,7.69840863 C7.68054241,8.33220391 7.53970407,9.06202285 7.06821205,9.54723283 C6.59672003,10.0324428 5.88753469,10.1773788 5.27165821,9.91439403 C4.65578174,9.65140924 4.25464162,9.03235429 4.25546304,8.34616427 C4.25546304,7.41086149 4.99224066,6.65264748 5.90110036,6.65264748 Z M12.8172469,13.9228333 L14.1760663,11.5133941 C15.2836979,12.580344 16.6767129,13.2810746 18.1752264,13.5250979 L19.613378,17.3349845 L3.28923795,17.3349845 L3.28923795,16.0412977 L4.6602623,15.970124 L6.03128665,12.5119193 L6.71476466,14.9820655 L8.77536951,14.9820655 L10.5593285,10.2573876 L12.8172469,13.9228333 Z" id="Shape"></path>
            </g>
        </g>
    </g>
</svg>