
<svg width="25px" height="29px" viewBox="0 0 25 29" version="1.1" xmlns="http://www.w3.org/2000/svg" xmlns:xlink="http://www.w3.org/1999/xlink">
    <g id="Page-1" stroke="none" stroke-width="1" fill="none" fill-rule="evenodd">
        <g id="Desktop-HD-Copy-6" transform="translate(-715.000000, -119.000000)">
            <g id="Group-2" transform="translate(715.000000, 119.000000)">
                <g id="Group" fill="#262626" fill-rule="nonzero">
                    <path d="M5.26246454,24.680639 C4.54557857,24.680639 4.54557857,23.6126782 5.26246454,23.6126782 L11.5218429,23.6126782 C11.5091641,23.790402 11.5027424,23.9685013 11.5025895,24.1466586 C11.5025895,24.3262241 11.5094135,24.5042374 11.5218429,24.680639 L5.26246454,24.680639 L5.26246454,24.680639 Z M16.1953715,1.44816453 L16.1953715,3.18549611 C16.1953715,7.10501358 17.1284322,7.33251489 20.4044414,7.33251489 L21.7467595,7.33251489 L16.1953715,1.44816453 Z M21.9431324,8.36806074 L20.634386,8.36806074 C16.9162179,8.36806074 15.138504,8.12378486 15.138504,3.21767224 L15.138504,1.03554605 L3.46178055,1.03554605 C2.14005632,1.03554605 1.05692851,2.09682086 1.05692851,3.39186505 L1.05692851,19.1989976 L13.355733,19.1989976 C13.0720308,19.5265074 12.8168997,19.8767804 12.5930287,20.2461245 L1.05692851,20.2461245 L1.05692851,25.6082545 C1.05692851,26.8990006 2.14450411,27.9644541 3.46178055,27.9644541 L12.5430673,27.9644541 C12.757589,28.3287123 13.0023319,28.6750622 13.2748198,29 L3.46178055,29 C1.56135643,29 0,27.4703507 0,25.6082545 L0,3.39186505 C0,1.52541111 1.55672586,0 3.46178055,0 L16.0335452,0 C16.1994833,0 16.3558128,0.0762436253 16.4555367,0.206190047 L22.857488,6.99212851 C22.9909826,7.13342886 23,7.27049079 23,7.44086306 L23,17.401791 C22.6598786,17.2228608 22.3066095,17.0690354 21.9431324,16.9415948 L21.9431324,8.36806074 L21.9431324,8.36806074 Z" id="Shape"></path>
                    <path d="M6.39661294,14.8627877 L5.38684325,14.8627877 L5.38684325,15.8181818 L3.83333333,15.8181818 L3.83333333,11.8636364 L6.28010557,11.8636364 C7.39350921,11.8636364 7.95012286,12.350838 7.95012286,13.3252893 C7.95012286,13.8609957 7.80510587,14.2574605 7.51513067,14.5147318 C7.40644141,14.6117412 7.25619276,14.6940986 7.06467863,14.7615168 C6.87310573,14.8290786 6.65037797,14.8627877 6.39661294,14.8627877 L6.39661294,14.8627877 Z M5.38684325,12.8760103 L5.38684325,13.8504137 L5.74418345,13.8504137 C5.93058348,13.8504137 6.06654793,13.8346605 6.15201801,13.8029624 C6.23742931,13.7713123 6.28010557,13.6985792 6.28010557,13.5847152 L6.28010557,13.1418046 C6.28010557,13.0278928 6.23742931,12.9550639 6.15201801,12.9235095 C6.06654793,12.8918594 5.93058348,12.8760103 5.74418345,12.8760103 L5.38684325,12.8760103 Z M8.41626988,15.8181818 L8.41626988,11.8636364 L10.5911132,11.8636364 C11.4663293,11.8636364 12.0669712,12.0155188 12.3932153,12.3192837 C12.7195182,12.6229049 12.8826403,13.1301213 12.8826403,13.840933 C12.8826403,14.5516968 12.7195182,15.0589133 12.3932153,15.3626303 C12.0669712,15.6663952 11.4663293,15.8181818 10.5911132,15.8181818 L8.41626988,15.8181818 Z M10.61445,12.8760103 L9.96972102,12.8760103 L9.96972102,14.8058078 L10.61445,14.8058078 C10.8267732,14.8058078 10.9808427,14.7858409 11.0765998,14.7457635 C11.1724156,14.7056382 11.2203823,14.6139437 11.2203823,14.4705365 L11.2203823,13.2113775 C11.2203823,13.0679702 11.1724156,12.9762757 11.0765998,12.9361983 C10.9808427,12.896073 10.8267732,12.8760103 10.61445,12.8760103 L10.61445,12.8760103 Z M16.3004444,14.3502563 L14.9798904,14.3502563 L14.9798904,15.8181818 L13.4263805,15.8181818 L13.4263805,11.8636364 L16.6111111,11.8636364 L16.416893,12.8760103 L14.9798904,12.8760103 L14.9798904,13.4075031 L16.3004444,13.4075031 L16.3004444,14.3502563 L16.3004444,14.3502563 Z" id="Shape"></path>
                </g>
                <path d="M18.9977461,17.0000004 C21.4248781,16.9991244 23.6134658,18.4606348 24.5426939,20.7028448 C25.471922,22.9450549 24.9587327,25.5262494 23.242491,27.242491 C21.5262494,28.9587327 18.9450549,29.471922 16.7028448,28.5426939 C14.4606348,27.6134658 12.9991244,25.4248781 13.0000004,22.9977461 C13.0000004,21.4070451 13.6319043,19.8814951 14.7566997,18.7566997 C15.8814951,17.6319043 17.4070451,17.0000004 18.9977461,17.0000004 Z M18.9890788,19.6216607 C18.8325596,19.6216607 18.6847362,19.6936436 18.588218,19.8168609 C18.2761965,20.19172 16.7897611,21.5134775 16.1830528,22.1830235 C15.9663712,22.4148727 15.7193542,22.7333946 15.9360358,23.0497497 C16.0362139,23.1886759 16.198151,23.2696444 16.3693989,23.2664312 L17.4853089,23.2664312 L17.4853089,25.2664019 C17.4924209,25.6138113 17.7792566,25.8899876 18.1266863,25.8839443 L19.87964,25.8839443 C20.227035,25.8839464 20.5089895,25.6029608 20.5101833,25.2555678 L20.5101833,23.2642644 L21.6195928,23.2642644 C21.7954667,23.2722506 21.9634392,23.1907106 22.0659568,23.0475828 C22.2978061,22.6987255 21.981451,22.3542019 21.758269,22.1093517 C21.1233921,21.4289717 19.7084616,20.1830528 19.3899397,19.8168609 C19.2934214,19.6936436 19.1455981,19.6216607 18.9890788,19.6216607 Z" id="Combined-Shape" fill="#040404"></path>
            </g>
        </g>
    </g>
</svg>