<svg width="20px" height="18px" viewBox="0 0 20 18" version="1.1" xmlns="http://www.w3.org/2000/svg" xmlns:xlink="http://www.w3.org/1999/xlink">
    <g id="Page-1" stroke="none" stroke-width="1" fill="none" fill-rule="evenodd">
        <g id="Desktop-HD-Copy-6" transform="translate(-967.000000, -47.000000)" fill="#676767" fill-rule="nonzero">
            <g id="Group" transform="translate(967.000000, 47.000000)">
                <path d="M1.44404385,1.41860195 L1.44404385,1.41860195 C-0.481130917,3.3100712 -0.481456445,6.40440292 1.44371832,8.29587217 L8.69697865,15.4244319 C9.49012851,15.4682596 9.92047702,15.1414713 9.84527996,14.2959485 L2.65094027,7.22545253 C1.35777883,5.95460913 1.35777883,3.87583244 2.65094027,2.60482909 L2.65094027,2.60482909 C3.94377618,1.33446556 6.05971057,1.33398569 7.35303478,2.60450918 C10.815029,6.0067545 14.2773487,9.40947968 17.7385291,12.8112451 C18.5580467,13.6161393 18.604109,15.0011906 17.7839403,15.8072045 L17.7839403,15.8072045 C16.9644226,16.6127384 15.5612326,16.5623526 14.7413894,15.7568186 C12.1135616,13.1745032 9.50575388,10.6117023 6.87776336,8.02922699 C6.51398541,7.6717273 6.4954303,7.06853656 6.85937101,6.71039705 L6.85937101,6.71039705 C7.2229862,6.35273742 7.83742099,6.37129221 8.20136171,6.72847198 L12.8733448,11.3199836 C13.7198814,11.3857251 14.0833338,10.9779996 14.0423172,10.1713459 L9.37017131,5.57983429 C8.36298654,4.59003203 6.715813,4.59003203 5.70927929,5.57951438 L5.70927929,5.57951438 C4.70176899,6.56931664 4.70274557,8.1891821 5.70895376,9.17786468 L8.90922314,12.3232221 L10.4178844,13.806006 L13.5431195,16.8769843 C15.0042535,18.3130613 17.4868956,18.4029561 18.9480297,16.9665591 C20.4099776,15.5300022 20.3188297,13.0908467 18.8570445,11.6544497 L14.2234737,7.10068754 L14.2234737,7.10100745 L8.44127611,1.41860195 C6.51691517,-0.473187212 3.36807927,-0.472547392 1.44404385,1.41860195 L1.44404385,1.41860195 Z" id="Path"></path>
            </g>
        </g>
    </g>
</svg>
